name rise31.4854peak64.571fall78.6902.mot
datacolumns 19
datarows 24
range 8.88663400000000 8.92496500000000
endheader
time	ground_force1_vx	ground_force1_vy	ground_force1_vz	ground_force1_px	ground_force1_py	ground_force1_pz	ground_force2_vx	ground_force2_vy	ground_force2_vz	ground_force2_px	ground_force2_py	ground_force2_pz	ground_torque1_x	ground_torque1_y	ground_torque1_z	ground_torque2_x	ground_torque2_y	ground_torque2_z	
8.88663400000000	10.68581900000000	680.92300299999999	44.43292400000000	0.20558400000000	0.00000000000000	0.10566900000000	0.00000000000000	0.00000000000000	0.00000000000000	0.00000000000000	0.00000000000000	0.00000000000000	0.00000000000000	15.22289000000000	0.00000000000000	0.00000000000000	0.00000000000000	0.00000000000000	
8.88831300000000	10.31995700000000	681.44964600000003	44.42089700000000	0.20489200000000	0.00000000000000	0.10561900000000	0.00000000000000	0.00000000000000	0.00000000000000	0.00000000000000	0.00000000000000	0.00000000000000	0.00000000000000	15.27097600000000	0.00000000000000	0.00000000000000	0.00000000000000	0.00000000000000	
8.88996600000000	9.93929400000000	682.02670499999999	44.40955400000000	0.20415800000000	0.00000000000000	0.10556900000000	0.00000000000000	0.00000000000000	0.00000000000000	0.00000000000000	0.00000000000000	0.00000000000000	0.00000000000000	15.32271100000000	0.00000000000000	0.00000000000000	0.00000000000000	0.00000000000000	
8.89163100000000	9.54335200000000	682.65336300000001	44.39864000000000	0.20338100000000	0.00000000000000	0.10552000000000	0.00000000000000	0.00000000000000	0.00000000000000	0.00000000000000	0.00000000000000	0.00000000000000	0.00000000000000	15.37808100000000	0.00000000000000	0.00000000000000	0.00000000000000	0.00000000000000	
8.89329700000000	9.13170700000000	683.32887000000005	44.38791500000000	0.20256200000000	0.00000000000000	0.10547200000000	0.00000000000000	0.00000000000000	0.00000000000000	0.00000000000000	0.00000000000000	0.00000000000000	0.00000000000000	15.43707600000000	0.00000000000000	0.00000000000000	0.00000000000000	0.00000000000000	
8.89496900000000	8.70398900000000	684.05254700000000	44.37715800000000	0.20170000000000	0.00000000000000	0.10542500000000	0.00000000000000	0.00000000000000	0.00000000000000	0.00000000000000	0.00000000000000	0.00000000000000	0.00000000000000	15.49969200000000	0.00000000000000	0.00000000000000	0.00000000000000	0.00000000000000	
8.89663500000000	8.25988300000000	684.82378400000005	44.36616500000000	0.20079500000000	0.00000000000000	0.10537800000000	0.00000000000000	0.00000000000000	0.00000000000000	0.00000000000000	0.00000000000000	0.00000000000000	0.00000000000000	15.56593300000000	0.00000000000000	0.00000000000000	0.00000000000000	0.00000000000000	
8.89830000000000	7.79913100000000	685.64204199999995	44.35475300000000	0.19984600000000	0.00000000000000	0.10533100000000	0.00000000000000	0.00000000000000	0.00000000000000	0.00000000000000	0.00000000000000	0.00000000000000	0.00000000000000	15.63580600000000	0.00000000000000	0.00000000000000	0.00000000000000	0.00000000000000	
8.89996400000000	7.32153000000000	686.50684999999999	44.34276200000000	0.19885600000000	0.00000000000000	0.10528600000000	0.00000000000000	0.00000000000000	0.00000000000000	0.00000000000000	0.00000000000000	0.00000000000000	0.00000000000000	15.70932100000000	0.00000000000000	0.00000000000000	0.00000000000000	0.00000000000000	
8.90163800000000	6.82693300000000	687.41781200000003	44.33004900000000	0.19782500000000	0.00000000000000	0.10524000000000	0.00000000000000	0.00000000000000	0.00000000000000	0.00000000000000	0.00000000000000	0.00000000000000	0.00000000000000	15.78649400000000	0.00000000000000	0.00000000000000	0.00000000000000	0.00000000000000	
8.90329800000000	6.31524900000000	688.37459500000000	44.31649700000000	0.19675300000000	0.00000000000000	0.10519500000000	0.00000000000000	0.00000000000000	0.00000000000000	0.00000000000000	0.00000000000000	0.00000000000000	0.00000000000000	15.86734300000000	0.00000000000000	0.00000000000000	0.00000000000000	0.00000000000000	
8.90496600000000	5.78644200000000	689.37693700000000	44.30201200000000	0.19564300000000	0.00000000000000	0.10515100000000	0.00000000000000	0.00000000000000	0.00000000000000	0.00000000000000	0.00000000000000	0.00000000000000	0.00000000000000	15.95189000000000	0.00000000000000	0.00000000000000	0.00000000000000	0.00000000000000	
8.90663400000000	5.24053000000000	690.42463999999995	44.28652200000000	0.19449600000000	0.00000000000000	0.10510600000000	0.00000000000000	0.00000000000000	0.00000000000000	0.00000000000000	0.00000000000000	0.00000000000000	0.00000000000000	16.04015700000000	0.00000000000000	0.00000000000000	0.00000000000000	0.00000000000000	
8.90830400000000	4.67758400000000	691.51756699999999	44.26998200000000	0.19331500000000	0.00000000000000	0.10506200000000	0.00000000000000	0.00000000000000	0.00000000000000	0.00000000000000	0.00000000000000	0.00000000000000	0.00000000000000	16.13216800000000	0.00000000000000	0.00000000000000	0.00000000000000	0.00000000000000	
8.90996800000000	4.09772700000000	692.65563999999995	44.25237100000000	0.19210000000000	0.00000000000000	0.10501800000000	0.00000000000000	0.00000000000000	0.00000000000000	0.00000000000000	0.00000000000000	0.00000000000000	0.00000000000000	16.22794600000000	0.00000000000000	0.00000000000000	0.00000000000000	0.00000000000000	
8.91164400000000	3.50113500000000	693.83883700000001	44.23369300000000	0.19085500000000	0.00000000000000	0.10497400000000	0.00000000000000	0.00000000000000	0.00000000000000	0.00000000000000	0.00000000000000	0.00000000000000	0.00000000000000	16.32751500000000	0.00000000000000	0.00000000000000	0.00000000000000	0.00000000000000	
8.91330100000000	2.88803100000000	695.06718799999999	44.21397800000000	0.18958300000000	0.00000000000000	0.10493000000000	0.00000000000000	0.00000000000000	0.00000000000000	0.00000000000000	0.00000000000000	0.00000000000000	0.00000000000000	16.43089500000000	0.00000000000000	0.00000000000000	0.00000000000000	0.00000000000000	
8.91496800000000	2.25868500000000	696.34076600000003	44.19328300000000	0.18828500000000	0.00000000000000	0.10488500000000	0.00000000000000	0.00000000000000	0.00000000000000	0.00000000000000	0.00000000000000	0.00000000000000	0.00000000000000	16.53810700000000	0.00000000000000	0.00000000000000	0.00000000000000	0.00000000000000	
8.91663800000000	1.61341300000000	697.65968899999996	44.17169000000000	0.18696400000000	0.00000000000000	0.10484000000000	0.00000000000000	0.00000000000000	0.00000000000000	0.00000000000000	0.00000000000000	0.00000000000000	0.00000000000000	16.64916400000000	0.00000000000000	0.00000000000000	0.00000000000000	0.00000000000000	
8.91830600000000	0.95257700000000	699.02410799999996	44.14930800000000	0.18562400000000	0.00000000000000	0.10479400000000	0.00000000000000	0.00000000000000	0.00000000000000	0.00000000000000	0.00000000000000	0.00000000000000	0.00000000000000	16.76407900000000	0.00000000000000	0.00000000000000	0.00000000000000	0.00000000000000	
8.91997200000000	0.27657700000000	700.43420400000002	44.12627200000000	0.18426700000000	0.00000000000000	0.10474800000000	0.00000000000000	0.00000000000000	0.00000000000000	0.00000000000000	0.00000000000000	0.00000000000000	0.00000000000000	16.88285700000000	0.00000000000000	0.00000000000000	0.00000000000000	0.00000000000000	
8.92163600000000	-0.41414600000000	701.89018099999998	44.10274200000000	0.18289600000000	0.00000000000000	0.10470100000000	0.00000000000000	0.00000000000000	0.00000000000000	0.00000000000000	0.00000000000000	0.00000000000000	0.00000000000000	17.00549700000000	0.00000000000000	0.00000000000000	0.00000000000000	0.00000000000000	
8.92330100000000	-1.11911500000000	703.39226099999996	44.07890700000000	0.18151400000000	0.00000000000000	0.10465300000000	0.00000000000000	0.00000000000000	0.00000000000000	0.00000000000000	0.00000000000000	0.00000000000000	0.00000000000000	17.13199200000000	0.00000000000000	0.00000000000000	0.00000000000000	0.00000000000000	
8.92496500000000	-1.83781800000000	704.94067199999995	44.05497700000000	0.18012500000000	0.00000000000000	0.10460500000000	0.00000000000000	0.00000000000000	0.00000000000000	0.00000000000000	0.00000000000000	0.00000000000000	0.00000000000000	17.26232800000000	0.00000000000000	0.00000000000000	0.00000000000000	0.00000000000000	
